<svg id="Capa_1" enable-background="new 0 0 512 512" height="512" viewBox="0 0 512 512" width="512" xmlns="http://www.w3.org/2000/svg" xmlns:xlink="http://www.w3.org/1999/xlink"><linearGradient id="SVGID_1_" gradientUnits="userSpaceOnUse" x1="256" x2="256" y1="512" y2="45"><stop offset="0" stop-color="#9bff9d"/><stop offset=".9973" stop-color="#e2ffea"/><stop offset="1" stop-color="#e2ffea"/></linearGradient><linearGradient id="SVGID_2_" gradientUnits="userSpaceOnUse" x1="256" x2="256" y1="452" y2="0"><stop offset="0" stop-color="#00b59c"/><stop offset="1" stop-color="#9cffac"/></linearGradient><g><g><g><path d="m256 285c66.182 0 120-53.833 120-120s-53.818-120-120-120-120 53.833-120 120 53.818 120 120 120zm-135 167c0 39.39 67.91 60 135 60s135-20.61 135-60c0-79.901-270-79.902-270 0z" fill="url(#SVGID_1_)"/></g></g><g><g><path d="m286 150h-15v-15c0-8.401-6.599-15-15-15s-15 6.599-15 15v15h-15c-8.401 0-15 6.599-15 15 0 8.399 6.599 15 15 15h15v15c0 8.399 6.599 15 15 15s15-6.601 15-15v-15h15c8.401 0 15-6.601 15-15 0-8.401-6.599-15-15-15zm-30-150c-90.901 0-165 74.099-165 165 0 74.099 42.599 112.5 80.099 146.1 30.3 27.6 59.101 55.399 67.5 98.6 1.5 8.7 2.401 17.4 2.401 27.3 0 8.399 6.599 15 15 15s15-6.601 15-15c0-9.9.901-18.6 2.401-27.301 8.399-43.2 37.2-71 67.5-98.6 37.5-33.6 80.099-72 80.099-146.1 0-90.9-74.099-164.999-165-164.999zm0 270c-57.9 0-105-47.1-105-105s47.1-105 105-105 105 47.1 105 105-47.1 105-105 105z" fill="url(#SVGID_2_)"/></g></g></g></svg>