<svg id="Layer_1" enable-background="new 0 0 510.923 510.923" height="512" viewBox="0 0 510.923 510.923" width="512" xmlns="http://www.w3.org/2000/svg"><g><g><path d="m182.761 186.197 17.902-10.496 1.694-25.524-21.837-12.417-30.9 18.164c-7.017 4.115-11.102 11.846-10.545 19.961l6.688 97.511c.809 11.794 11.02 20.731 22.855 19.922 11.813-.81 20.732-11.043 19.922-22.855z" fill="#ffb69e"/><path d="m258.162 117.136c-5.989-10.214-19.124-13.638-29.338-7.651l-48.304 28.275 20.142 37.941 49.848-29.227c10.215-5.989 13.64-19.124 7.652-29.338z" fill="#4699f2"/></g><g id="XMLID_3744_"><path d="m75.356 402.504c-2.416-14.001 6.976-27.31 20.978-29.725l92.723-15.996 3.877-63.265 52.849-12.863-6.757 99.78c-.802 11.84-9.599 21.596-21.294 23.614l-112.65 19.434c-13.941 2.408-27.301-6.921-29.726-20.979z" fill="#5f6e9b"/></g><g id="XMLID_3743_"><path d="m316.772 487.899-12.516-118.401-37.995-80.6c-6.058-12.852-.551-28.181 12.301-34.24 12.852-6.056 28.182-.551 34.24 12.301l39.85 84.537c1.228 2.606 2.011 5.4 2.314 8.265l12.974 122.729c1.493 14.13-8.75 26.795-22.879 28.289-14.159 1.493-26.798-8.774-28.289-22.88z" fill="#414b82"/></g><path d="m311.854 112.664-63.62-8.961c-15.469-2.179-29.775 8.595-31.954 24.063l-23.346 165.75 80.542 13.224c21.445 3.521 41.578-11.322 44.556-32.849l17.885-129.273c2.179-15.469-8.594-29.775-24.063-31.954z" fill="#64afff"/><ellipse cx="305.445" cy="47.279" fill="#ffb69e" rx="47.273" ry="47.274" transform="matrix(.915 -.403 .403 .915 6.832 127.043)"/><path d="m427.293 82.625c-9.503-7.063-22.932-5.083-29.995 4.421l-42.272 56.885-30.016-10.264-12.266 17.794v23.326l43.218 14.778c8.853 3.028 18.604-.043 24.144-7.498l51.607-69.447c7.063-9.504 5.083-22.933-4.42-29.995z" fill="#ffb69e"/><path d="m325.01 133.666-47.866-16.368c-11.205-3.832-23.391 2.146-27.222 13.349s2.146 23.391 13.349 27.222l49.473 16.917z" fill="#4699f2"/></g></svg>